<svg width="72" height="72" viewBox="0 0 72 72" fill="none" xmlns="http://www.w3.org/2000/svg">
<path d="M65.5706 54.8407C65.2108 54.8407 64.899 54.7207 64.5873 54.5527C62.7166 53.4727 60.8459 52.3927 58.9752 51.3127C57.7281 50.5927 57.5122 49.2726 58.5195 48.3606C59.0472 47.9046 59.7667 47.8086 60.4382 48.1686C61.6613 48.8406 62.8605 49.5606 64.0596 50.2567C64.8751 50.7127 65.6905 51.1687 66.4819 51.6727C67.1535 52.0807 67.4173 52.8727 67.2014 53.6167C67.0096 54.3127 66.2661 54.8407 65.5466 54.8407H65.5706Z" fill="#A4C2D7"/>
<path d="M13.9821 22.1763C13.9821 23.5923 12.5192 24.4563 11.416 23.8083C9.44934 22.6803 7.48272 21.5283 5.51611 20.4003C4.31695 19.7042 4.26899 18.0722 5.42018 17.3762C5.99577 17.0402 6.59535 17.0402 7.17094 17.3762C9.13756 18.5042 11.0802 19.6322 13.0228 20.7603C13.6224 21.0963 13.9342 21.6243 13.9582 22.1763H13.9821Z" fill="#A4C2D7"/>
<path d="M54.8015 65.5688C54.8015 66.3608 54.2739 67.0808 53.6024 67.2728C52.8829 67.4888 52.0435 67.2728 51.6598 66.6248C50.8203 65.2088 50.0049 63.7928 49.1895 62.3768C48.8298 61.7528 48.446 61.1288 48.1342 60.5047C47.6786 59.6407 47.9903 58.6567 48.8058 58.2007C49.6212 57.7447 50.6045 57.9607 51.1081 58.8007C52.1154 60.4807 53.0748 62.1848 54.0581 63.8648C54.3219 64.3208 54.6576 64.7528 54.7776 65.2808C54.8015 65.4008 54.8255 65.5448 54.8255 65.5688H54.8015Z" fill="#A4C2D7"/>
<path d="M24.0074 59.7847C24.0074 60.2167 23.7196 60.6487 23.4798 61.0567C22.4485 62.8328 21.4173 64.6088 20.386 66.3848C20.0263 67.0088 19.4986 67.3448 18.8031 67.3448C18.1316 67.3448 17.604 66.9848 17.2682 66.3848C16.9804 65.8568 17.0044 65.3048 17.2922 64.7768C18.4434 62.7848 19.5946 60.7927 20.7457 58.8007C21.1774 58.0567 21.9449 57.7927 22.7603 58.0327C23.4558 58.2487 23.9835 58.9687 23.9835 59.7847H24.0074Z" fill="#A4C2D7"/>
<path d="M6.33212 54.8407C5.58864 54.8407 4.86915 54.2887 4.67728 53.5926C4.46143 52.8246 4.74923 52.0326 5.49271 51.6006C7.4833 50.4486 9.4739 49.2966 11.4645 48.1686C12.208 47.7606 12.9994 47.9286 13.575 48.5766C14.1026 49.1526 14.1506 49.9926 13.7189 50.6646C13.3831 51.1686 12.8315 51.3846 12.3279 51.6726C10.6491 52.6566 8.97026 53.6166 7.29144 54.5767C6.97966 54.7447 6.66788 54.8887 6.33212 54.8647V54.8407Z" fill="#A4C2D7"/>
<path d="M22.2806 14.0162C21.633 13.9922 21.1294 13.7282 20.8176 13.2002C19.6664 11.2082 18.5152 9.21617 17.364 7.22414C16.8844 6.38413 17.1482 5.37612 17.9876 4.87212C18.779 4.39211 19.8343 4.63211 20.3379 5.47212C21.5131 7.46415 22.6643 9.48018 23.7915 11.4962C24.1033 12.0482 24.0553 12.6242 23.7435 13.1762C23.4078 13.7522 22.8802 13.9682 22.2566 14.0162H22.2806Z" fill="#A4C2D7"/>
<path d="M59.5509 24.0483C58.9034 24.0483 58.2319 23.5443 57.992 22.7763C57.7762 22.0803 58.016 21.2883 58.6876 20.9043C60.2225 19.9923 61.7574 19.1042 63.3163 18.2162C63.9638 17.8562 64.5394 17.3762 65.3069 17.2082C66.0504 17.0402 66.8658 17.4722 67.1776 18.1922C67.5133 18.9362 67.2975 19.8722 66.6499 20.2563C65.6906 20.8563 64.7073 21.4083 63.724 21.9843C62.6448 22.6083 61.5895 23.2083 60.5103 23.8323C60.2465 23.9763 59.9826 24.0723 59.5989 24.0723L59.5509 24.0483Z" fill="#A4C2D7"/>
<path d="M49.8854 14.0162C48.3505 14.0162 47.4871 12.6482 48.1106 11.4962C48.7821 10.2482 49.5016 9.04813 50.2211 7.82411C50.6768 7.0321 51.1085 6.2161 51.6122 5.44809C52.2597 4.41608 53.5548 4.34407 54.3702 5.23209C54.8499 5.76009 54.9218 6.5521 54.5381 7.24811C53.6507 8.80813 52.7394 10.3681 51.852 11.9282C51.5882 12.3602 51.3723 12.8162 51.0845 13.2242C50.7488 13.7522 50.2451 13.9922 49.8854 14.0162Z" fill="#A4C2D7"/>
<path d="M66.7217 37.7044C65.5945 37.7044 64.4673 37.6804 63.3641 37.7044C62.5966 37.7284 61.5894 37.0804 61.5894 36.0004C61.5894 34.9684 62.3088 34.2484 63.2922 34.2484C65.6185 34.2244 67.9209 34.2484 70.2473 34.2484C71.1586 34.2484 71.9261 35.1124 71.9261 36.0244C71.9261 36.9364 71.1346 37.7044 70.1993 37.7044C69.0481 37.7044 67.8969 37.7044 66.7457 37.7044H66.7217Z" fill="#A4C2D7"/>
<path d="M5.18088 37.7044C4.05368 37.7044 2.90249 37.7044 1.77528 37.7044C0.83994 37.7044 0.0245142 36.9364 0.000531117 36.0004C-0.023452 35.1124 0.76799 34.2484 1.72731 34.2484C4.02969 34.2484 6.33207 34.2244 8.63445 34.2484C9.64174 34.2484 10.3372 34.9924 10.3133 36.0244C10.3133 37.0084 9.54581 37.7044 8.53852 37.7044C7.41131 37.7044 6.2841 37.7044 5.18088 37.7044Z" fill="#A4C2D7"/>
<path d="M37.6782 5.18407C37.6782 6.31208 37.6782 7.44009 37.6782 8.5441C37.6782 9.55212 36.9347 10.3441 35.9754 10.3441C35.04 10.3441 34.2246 9.52812 34.2246 8.52011C34.2246 6.26408 34.2246 4.03205 34.2246 1.77602C34.2246 0.792005 34.9921 0 35.9514 0C36.9107 0 37.6782 0.792005 37.6782 1.77602C37.6782 2.90403 37.6782 4.03205 37.6782 5.13606V5.18407Z" fill="#A4C2D7"/>
<path d="M34.2246 66.7689C34.2246 65.6649 34.2246 64.5608 34.2246 63.4328C34.2246 62.3768 34.9441 61.6568 35.9754 61.6568C36.9587 61.6568 37.6782 62.4008 37.6782 63.4328C37.6782 65.6649 37.6782 67.8969 37.6782 70.1289C37.6782 71.1849 36.9587 71.9529 35.9514 71.9529C34.9921 71.9529 34.2246 71.1369 34.2246 70.1289C34.2246 69.0009 34.2246 67.8729 34.2246 66.7689Z" fill="#A4C2D7"/>
</svg>
