<svg width="24" height="24" viewBox="0 0 24 24" fill="none" xmlns="http://www.w3.org/2000/svg">
<rect width="24" height="24" fill="white" fill-opacity="0.01"/>
<path fill-rule="evenodd" clip-rule="evenodd" d="M13.3103 5.34296L20.6693 18.513C20.7541 18.6651 20.7977 18.8369 20.7958 19.0111C20.7939 19.1853 20.7464 19.356 20.6582 19.5062C20.57 19.6565 20.4441 19.7811 20.2929 19.8677C20.1417 19.9543 19.9705 19.9999 19.7963 20H4.20426C4.02988 20 3.85852 19.9544 3.70719 19.8678C3.55587 19.7811 3.42983 19.6564 3.34159 19.506C3.25334 19.3556 3.20597 19.1847 3.20416 19.0104C3.20234 18.836 3.24616 18.6642 3.33126 18.512L10.6913 5.34296C10.8215 5.1102 11.0115 4.91638 11.2415 4.78147C11.4716 4.64656 11.7335 4.57544 12.0003 4.57544C12.267 4.57544 12.5289 4.64656 12.759 4.78147C12.9891 4.91638 13.179 5.1102 13.3093 5.34296H13.3103ZM12.0003 8.49996C11.8445 8.49995 11.6905 8.5333 11.5487 8.59777C11.4069 8.66224 11.2805 8.75633 11.1781 8.87371C11.0757 8.9911 10.9996 9.12905 10.9549 9.2783C10.9103 9.42755 10.8981 9.58462 10.9193 9.73897L11.4323 13.505C11.4506 13.6426 11.5183 13.769 11.6227 13.8605C11.7272 13.952 11.8614 14.0024 12.0003 14.0024C12.1391 14.0024 12.2733 13.952 12.3778 13.8605C12.4823 13.769 12.5499 13.6426 12.5683 13.505L13.0813 9.73897C13.1024 9.58462 13.0902 9.42755 13.0456 9.2783C13.0009 9.12905 12.9248 8.9911 12.8224 8.87371C12.72 8.75633 12.5936 8.66224 12.4518 8.59777C12.31 8.5333 12.156 8.49995 12.0003 8.49996ZM12.0003 17.13C12.2986 17.13 12.5848 17.0114 12.7958 16.8005C13.0067 16.5895 13.1253 16.3033 13.1253 16.005C13.1253 15.7066 13.0067 15.4204 12.7958 15.2095C12.5848 14.9985 12.2986 14.88 12.0003 14.88C11.7019 14.88 11.4157 14.9985 11.2048 15.2095C10.9938 15.4204 10.8753 15.7066 10.8753 16.005C10.8753 16.3033 10.9938 16.5895 11.2048 16.8005C11.4157 17.0114 11.7019 17.13 12.0003 17.13Z" fill="#FFAB00"/>
</svg>
