<svg id="vector" xmlns="http://www.w3.org/2000/svg" width="24" height="24" viewBox="0 0 24.0 24.0"><path fill="@android:color/white" d="M21,3L3,3c-1.1,0 -2,0.9 -2,2v14c0,1.1 0.9,1.98 2,1.98h18c1.1,0 2,-0.88 2,-1.98L23,5c0,-1.1 -0.9,-2 -2,-2zM21,19.01L3,19.01L3,4.98h18v13.03z" id="path_0"/><path fill="@android:color/white" d="M12,6l-2.5,5h5z" id="path_1"/><path fill="@android:color/white" d="M16,15m-2.5,0a2.5,2.5 0,1 1,5 0a2.5,2.5 0,1 1,-5 0" id="path_2"/><path fill="@android:color/white" d="M5,12.5h5v5h-5z" id="path_3"/></svg>