<svg width="52" height="49" viewBox="0 0 52 49" fill="none" xmlns="http://www.w3.org/2000/svg">
<path d="M37.1564 7.14279L33.9048 10.3968C35.6892 12.2222 36.7996 14.6824 36.7996 17.4205C36.7996 19.9602 35.8479 22.3015 34.2618 24.0872L37.5133 27.3411C39.9322 24.7221 41.3994 21.2697 41.3994 17.4205C41.3994 13.4126 39.7736 9.76182 37.1564 7.14279Z" fill="#5089B2"/>
<path d="M44.0554 0.238129L40.8037 3.49208C44.3726 7.06349 46.5534 11.9841 46.5534 17.4206C46.5534 22.8571 44.4915 27.4602 41.1606 30.9919L44.4122 34.2459C48.5759 29.8808 51.1533 23.9285 51.1533 17.4206C51.1533 10.9127 48.4569 4.64287 44.0157 0.238129H44.0554Z" fill="#5089B2"/>
<path d="M31.8415 17.1427C31.8415 18.5713 31.2467 19.8411 30.295 20.7142L23.3159 13.7301C24.228 12.7777 25.4969 12.1824 26.8847 12.1824C29.6209 12.1824 31.8415 14.4047 31.8415 17.1427Z" fill="#5089B2"/>
<path d="M3.21195 0L0 3.21426L4.48091 7.69838C3.17233 10.6746 2.45852 13.9682 2.45852 17.4602C2.45852 24.0475 5.07576 30.0395 9.35837 34.4442L12.6099 31.1903C9.16001 27.6189 7.05838 22.8173 7.05838 17.4602C7.05838 15.3174 7.41527 13.2142 8.04973 11.2698L12.3324 15.5555C12.2531 16.1507 12.2135 16.7856 12.2135 17.4205C12.2135 21.3094 13.7599 24.8808 16.2581 27.4998L19.5098 24.2459C18.5184 23.1745 17.7649 21.9046 17.3287 20.5157L24.7837 27.976V36.8649H21.4528C20.5407 36.8649 19.8269 37.5791 19.8269 38.4918V39.1665H2.69643V43.7299H19.8269V44.6823C19.8269 45.595 20.5407 46.3092 21.4528 46.3092H32.6352C33.5472 46.3092 34.261 45.595 34.261 44.6823V43.7299H40.5263L45.7209 48.9283L48.9329 45.714L3.25165 0H3.21195ZM34.2213 39.2061V38.5315C34.2213 37.6188 33.5075 36.9045 32.5955 36.9045H29.2646V32.4998L35.9661 39.2061H34.261H34.2213Z" fill="#5089B2"/>
<path d="M51.3913 39.2062H48.6948L51.4706 41.6268L51.3913 39.2062Z" fill="#5089B2"/>
</svg>
