<svg width="14" height="16" viewBox="0 0 14 16" fill="none" xmlns="http://www.w3.org/2000/svg">
<path d="M5.71415 5.71436H4.57129V12.5715H5.71415V5.71436Z" fill="#303030"/>
<path d="M9.14286 5.71436H8V12.5715H9.14286V5.71436Z" fill="#303030"/>
<path d="M0 2.28577V3.42862H1.14286V14.8572C1.14286 15.1603 1.26326 15.451 1.47759 15.6653C1.69192 15.8796 1.98261 16.0001 2.28571 16.0001H11.4286C11.7317 16.0001 12.0224 15.8796 12.2367 15.6653C12.451 15.451 12.5714 15.1603 12.5714 14.8572V3.42862H13.7143V2.28577H0ZM2.28571 14.8572V3.42862H11.4286V14.8572H2.28571Z" fill="#303030"/>
<path d="M9.14272 0H4.57129V1.14286H9.14272V0Z" fill="#303030"/>
</svg>
