<svg width="16" height="16" viewBox="0 0 16 16" fill="none" xmlns="http://www.w3.org/2000/svg">
<path d="M14.8563 4.57157V14.8573H4.57059V4.57157H14.8563ZM14.8563 3.42871H4.57059C4.26749 3.42871 3.9768 3.54912 3.76247 3.76345C3.54814 3.97777 3.42773 4.26846 3.42773 4.57157V14.8573C3.42773 15.1604 3.54814 15.4511 3.76247 15.6654C3.9768 15.8797 4.26749 16.0001 4.57059 16.0001H14.8563C15.1594 16.0001 15.4501 15.8797 15.6644 15.6654C15.8788 15.4511 15.9992 15.1604 15.9992 14.8573V4.57157C15.9992 4.26846 15.8788 3.97777 15.6644 3.76345C15.4501 3.54912 15.1594 3.42871 14.8563 3.42871Z" fill="#303030"/>
<path d="M1.14286 9.14286H0V1.14286C0 0.839753 0.120408 0.549062 0.334735 0.334735C0.549062 0.120408 0.839753 0 1.14286 0H9.14286V1.14286H1.14286V9.14286Z" fill="#303030"/>
</svg>
