<svg id="graphic_-_wifi_commissioning" data-name="graphic - wifi commissioning" xmlns="http://www.w3.org/2000/svg" xmlns:xlink="http://www.w3.org/1999/xlink" width="40" height="40" viewBox="0 0 40 40">
  <defs>
    <clipPath id="clip-path">
      <rect id="Rectangle_1126" data-name="Rectangle 1126" width="18.545" height="24.882" fill="#fff"/>
    </clipPath>
  </defs>
  <g id="Group_11455" data-name="Group 11455">
    <g id="Group_1373" data-name="Group 1373">
      <g id="Group_695" data-name="Group 695">
        <g id="Group_651" data-name="Group 651">
          <circle id="Ellipse_1" data-name="Ellipse 1" cx="20" cy="20" r="20" fill="#0086d9"/>
        </g>
      </g>
    </g>
  </g>
  <g id="Group_12242" data-name="Group 12242" transform="translate(10.813 7.091)">
    <g id="Group_12241" data-name="Group 12241" clip-path="url(#clip-path)">
      <path id="Path_11141" data-name="Path 11141" d="M9.651,11.125a.624.624,0,0,0-.769,0L0,18.052l.768.972,1.087-.847v7.652A1.239,1.239,0,0,0,3.09,27.066H15.454a1.24,1.24,0,0,0,1.237-1.237V18.183l1.086.846.769-.971Zm.858,14.7H8.036V20.883h2.472Zm1.237,0V20.883a1.238,1.238,0,0,0-1.237-1.236H8.036A1.238,1.238,0,0,0,6.8,20.883v4.946H3.09V17.213L9.273,12.4l6.181,4.822v8.61Z" transform="translate(0 -2.183)" fill="#fff"/>
      <path id="Path_11142" data-name="Path 11142" d="M11.313,8.659a1.039,1.039,0,1,1,.733-1.774,1.043,1.043,0,0,1,0,1.469,1.026,1.026,0,0,1-.733.3" transform="translate(-2.04 -1.307)" fill="#fff"/>
      <path id="Path_11143" data-name="Path 11143" d="M13.058,5.394a.592.592,0,0,1-.425-.176,2.542,2.542,0,0,0-3.5-.01.6.6,0,1,1-.844-.852,3.674,3.674,0,0,1,5.189.015.6.6,0,0,1,.176.425.6.6,0,0,1-.6.6" transform="translate(-1.611 -0.653)" fill="#fff"/>
      <path id="Path_11144" data-name="Path 11144" d="M14.458,2.873a.591.591,0,0,1-.425-.176A5.114,5.114,0,0,0,6.809,2.69a.6.6,0,1,1-.847-.85,6.312,6.312,0,0,1,8.919.008.6.6,0,0,1-.423,1.024" transform="translate(-1.149 0)" fill="#fff"/>
    </g>
  </g>
</svg>
