<svg width="38" height="48" viewBox="0 0 38 48" fill="none" xmlns="http://www.w3.org/2000/svg">
<path d="M20.4616 23.8887L22.6029 47.4203H15.029L17.1307 23.8887C14.9894 23.1745 13.4429 21.1903 13.4429 18.8094C13.4429 15.8729 15.8618 13.4523 18.7962 13.4523C21.7306 13.4523 24.1494 15.8729 24.1494 18.8094C24.1494 21.1903 22.6029 23.2141 20.4616 23.8887Z" fill="#5089B2"/>
<path d="M18.796 9.00789C13.403 9.00789 9.00146 13.4126 9.00146 18.8094C9.00146 22.857 11.46 26.3491 14.9495 27.8173L15.1081 25.9126C12.5306 24.5634 10.7859 21.9046 10.7859 18.8094C10.7859 14.4047 14.3547 10.8333 18.7563 10.8333C23.1579 10.8333 26.7267 14.4047 26.7267 18.8094C26.7267 21.9046 24.9819 24.5634 22.4044 25.9126L22.5631 27.8173C26.0526 26.3094 28.5112 22.857 28.5112 18.8094C28.5112 13.4126 24.1096 9.00789 18.7167 9.00789H18.796Z" fill="#5089B2"/>
<path d="M18.7962 4.40472C10.8655 4.40472 4.40186 10.8729 4.40186 18.8094C4.40186 25.2776 8.68446 30.7538 14.5532 32.5792L14.7119 30.7141C9.79481 29.0077 6.22596 24.3252 6.22596 18.8094C6.22596 11.865 11.8568 6.23011 18.7962 6.23011C25.7357 6.23011 31.4061 11.865 31.4061 18.8094C31.4061 24.3252 27.8373 29.0077 22.9202 30.7141L23.0789 32.5792C28.9476 30.7538 33.2302 25.2776 33.2302 18.8094C33.2302 10.8729 26.7666 4.40472 18.8359 4.40472H18.7962Z" fill="#5089B2"/>
<path d="M18.796 0C8.44629 0 0 8.45232 0 18.8094C0 27.5792 6.02738 34.9601 14.1168 37.0236L14.2754 35.1982C7.09807 33.2141 1.78441 26.6268 1.78441 18.8094C1.78441 9.44438 9.39795 1.82538 18.7563 1.82538C28.1146 1.82538 35.7678 9.44438 35.7678 18.8094C35.7678 26.6268 30.4541 33.2141 23.2768 35.1982L23.4354 37.0236C31.5645 34.9204 37.5522 27.5395 37.5522 18.8094C37.5522 8.45232 29.1059 0 18.7563 0H18.796Z" fill="#5089B2"/>
</svg>
